<svg width="86" height="71" viewBox="0 0 86 71" fill="none" xmlns="http://www.w3.org/2000/svg">
<path d="M3.85824 57.6019C3.85824 57.6019 78.1076 62.1087 79.9116 57.4259C81.7155 52.7431 6.27719 51.37 3.85824 48.7822C1.43929 46.1943 25.9363 35.8075 45.4109 35.2794C64.8855 34.7513 61.2775 28.0264 57.7106 26.9878C54.1437 25.9491 4.80124 23.8717 3.75577 19.2065C2.71029 14.5413 27.4943 16.6011 27.4943 14.5237C27.4943 12.4464 -33.5535 0 26.2848 0C86.123 0 54.6766 12.4464 60.724 16.0906C66.7714 19.7347 76.4472 32.6916 63.7375 37.8849C51.0278 43.0783 26.8383 40.3319 26.2848 42.1452C25.7313 43.9585 86 54.4684 86 57.2499C86 60.0314 23.7428 70.8934 20.9139 70.999C18.085 71.1047 -8.4005 62.496 3.85824 57.6019Z" fill="white"/>
</svg>
